# Blender v3.1.2 OBJ File: ''
# www.blender.org
mtllib anillo.mtl
o Cilindro
v 0.000000 -0.053545 -1.000000
v 0.000000 0.053545 -1.000000
v 0.195090 -0.053545 -0.980785
v 0.195090 0.053545 -0.980785
v 0.382683 -0.053545 -0.923880
v 0.382683 0.053545 -0.923880
v 0.555570 -0.053545 -0.831470
v 0.555570 0.053545 -0.831470
v 0.707107 -0.053545 -0.707107
v 0.707107 0.053545 -0.707107
v 0.831470 -0.053545 -0.555570
v 0.831470 0.053545 -0.555570
v 0.923880 -0.053545 -0.382683
v 0.923880 0.053545 -0.382683
v 0.980785 -0.053545 -0.195090
v 0.980785 0.053545 -0.195090
v 1.000000 -0.053545 0.000000
v 1.000000 0.053545 0.000000
v 0.980785 -0.053545 0.195090
v 0.980785 0.053545 0.195090
v 0.923880 -0.053545 0.382683
v 0.923880 0.053545 0.382683
v 0.831470 -0.053545 0.555570
v 0.831470 0.053545 0.555570
v 0.707107 -0.053545 0.707107
v 0.707107 0.053545 0.707107
v 0.555570 -0.053545 0.831470
v 0.555570 0.053545 0.831470
v 0.382683 -0.053545 0.923880
v 0.382683 0.053545 0.923880
v 0.195090 -0.053545 0.980785
v 0.195090 0.053545 0.980785
v -0.000000 -0.053545 1.000000
v -0.000000 0.053545 1.000000
v -0.195090 -0.053545 0.980785
v -0.195090 0.053545 0.980785
v -0.382683 -0.053545 0.923880
v -0.382683 0.053545 0.923880
v -0.555570 -0.053545 0.831470
v -0.555570 0.053545 0.831470
v -0.707107 -0.053545 0.707107
v -0.707107 0.053545 0.707107
v -0.831469 -0.053545 0.555570
v -0.831469 0.053545 0.555570
v -0.923880 -0.053545 0.382684
v -0.923880 0.053545 0.382684
v -0.980785 -0.053545 0.195090
v -0.980785 0.053545 0.195090
v -1.000000 -0.053545 -0.000000
v -1.000000 0.053545 -0.000000
v -0.980785 -0.053545 -0.195090
v -0.980785 0.053545 -0.195090
v -0.923879 -0.053545 -0.382684
v -0.923879 0.053545 -0.382684
v -0.831470 -0.053545 -0.555570
v -0.831470 0.053545 -0.555570
v -0.707107 -0.053545 -0.707107
v -0.707107 0.053545 -0.707107
v -0.555570 -0.053545 -0.831470
v -0.555570 0.053545 -0.831470
v -0.382683 -0.053545 -0.923880
v -0.382683 0.053545 -0.923880
v -0.195090 -0.053545 -0.980785
v -0.195090 0.053545 -0.980785
v 0.000000 -0.049968 -0.933186
v 0.182056 -0.049968 -0.915255
v 0.182056 0.049968 -0.915255
v 0.000000 0.049968 -0.933186
v 0.357115 -0.049968 -0.862152
v 0.357115 0.049968 -0.862152
v 0.518451 -0.049968 -0.775916
v 0.518451 0.049968 -0.775916
v 0.659862 -0.049968 -0.659862
v 0.659862 0.049968 -0.659862
v 0.775916 -0.049968 -0.518451
v 0.775916 0.049968 -0.518451
v 0.862152 -0.049968 -0.357115
v 0.862152 0.049968 -0.357115
v 0.915255 -0.049968 -0.182056
v 0.915255 0.049968 -0.182056
v 0.933186 -0.049968 0.000000
v 0.933186 0.049968 0.000000
v 0.915255 -0.049968 0.182056
v 0.915255 0.049968 0.182056
v 0.862152 -0.049968 0.357115
v 0.862152 0.049968 0.357115
v 0.775916 -0.049968 0.518451
v 0.775916 0.049968 0.518451
v 0.659862 -0.049968 0.659862
v 0.659862 0.049968 0.659862
v 0.518451 -0.049968 0.775916
v 0.518451 0.049968 0.775916
v 0.357115 -0.049968 0.862152
v 0.357115 0.049968 0.862152
v 0.182056 -0.049968 0.915256
v 0.182056 0.049968 0.915256
v -0.000000 -0.049968 0.933186
v -0.000000 0.049968 0.933186
v -0.182056 -0.049968 0.915256
v -0.182056 0.049968 0.915256
v -0.357115 -0.049968 0.862152
v -0.357115 0.049968 0.862152
v -0.518451 -0.049968 0.775916
v -0.518451 0.049968 0.775916
v -0.659862 -0.049968 0.659862
v -0.659862 0.049968 0.659862
v -0.775916 -0.049968 0.518451
v -0.775916 0.049968 0.518451
v -0.862152 -0.049968 0.357115
v -0.862152 0.049968 0.357115
v -0.915255 -0.049968 0.182056
v -0.915255 0.049968 0.182056
v -0.933186 -0.049968 -0.000000
v -0.933186 0.049968 -0.000000
v -0.915255 -0.049968 -0.182056
v -0.915255 0.049968 -0.182056
v -0.862152 -0.049968 -0.357115
v -0.862152 0.049968 -0.357115
v -0.775916 -0.049968 -0.518450
v -0.775916 0.049968 -0.518450
v -0.659863 -0.049968 -0.659862
v -0.659863 0.049968 -0.659862
v -0.518451 -0.049968 -0.775916
v -0.518451 0.049968 -0.775916
v -0.357115 -0.049968 -0.862152
v -0.357115 0.049968 -0.862152
v -0.182056 -0.049968 -0.915256
v -0.182056 0.049968 -0.915256
vt 1.000000 0.500000
vt 0.968750 0.500000
vt 0.968750 1.000000
vt 1.000000 1.000000
vt 0.937500 0.500000
vt 0.937500 1.000000
vt 0.906250 0.500000
vt 0.906250 1.000000
vt 0.875000 0.500000
vt 0.875000 1.000000
vt 0.843750 0.500000
vt 0.843750 1.000000
vt 0.812500 0.500000
vt 0.812500 1.000000
vt 0.781250 0.500000
vt 0.781250 1.000000
vt 0.750000 0.500000
vt 0.750000 1.000000
vt 0.718750 0.500000
vt 0.718750 1.000000
vt 0.687500 0.500000
vt 0.687500 1.000000
vt 0.656250 0.500000
vt 0.656250 1.000000
vt 0.625000 0.500000
vt 0.625000 1.000000
vt 0.593750 0.500000
vt 0.593750 1.000000
vt 0.562500 0.500000
vt 0.562500 1.000000
vt 0.531250 0.500000
vt 0.531250 1.000000
vt 0.500000 0.500000
vt 0.500000 1.000000
vt 0.468750 0.500000
vt 0.468750 1.000000
vt 0.437500 0.500000
vt 0.437500 1.000000
vt 0.406250 0.500000
vt 0.406250 1.000000
vt 0.375000 0.500000
vt 0.375000 1.000000
vt 0.343750 0.500000
vt 0.343750 1.000000
vt 0.312500 0.500000
vt 0.312500 1.000000
vt 0.281250 0.500000
vt 0.281250 1.000000
vt 0.250000 0.500000
vt 0.250000 1.000000
vt 0.218750 0.500000
vt 0.218750 1.000000
vt 0.187500 0.500000
vt 0.187500 1.000000
vt 0.156250 0.500000
vt 0.156250 1.000000
vt 0.125000 0.500000
vt 0.125000 1.000000
vt 0.093750 0.500000
vt 0.093750 1.000000
vt 0.062500 0.500000
vt 0.062500 1.000000
vt 0.031250 0.500000
vt 0.031250 1.000000
vt 0.000000 0.500000
vt 0.000000 1.000000
vt 1.000000 0.500000
vt 1.000000 1.000000
vt 0.968750 1.000000
vt 0.968750 0.500000
vt 0.937500 1.000000
vt 0.937500 0.500000
vt 0.906250 1.000000
vt 0.906250 0.500000
vt 0.875000 1.000000
vt 0.875000 0.500000
vt 0.843750 1.000000
vt 0.843750 0.500000
vt 0.812500 1.000000
vt 0.812500 0.500000
vt 0.781250 1.000000
vt 0.781250 0.500000
vt 0.750000 1.000000
vt 0.750000 0.500000
vt 0.718750 1.000000
vt 0.718750 0.500000
vt 0.687500 1.000000
vt 0.687500 0.500000
vt 0.656250 1.000000
vt 0.656250 0.500000
vt 0.625000 1.000000
vt 0.625000 0.500000
vt 0.593750 1.000000
vt 0.593750 0.500000
vt 0.562500 1.000000
vt 0.562500 0.500000
vt 0.531250 1.000000
vt 0.531250 0.500000
vt 0.500000 1.000000
vt 0.500000 0.500000
vt 0.468750 1.000000
vt 0.468750 0.500000
vt 0.437500 1.000000
vt 0.437500 0.500000
vt 0.406250 1.000000
vt 0.406250 0.500000
vt 0.375000 1.000000
vt 0.375000 0.500000
vt 0.343750 1.000000
vt 0.343750 0.500000
vt 0.312500 1.000000
vt 0.312500 0.500000
vt 0.281250 1.000000
vt 0.281250 0.500000
vt 0.250000 1.000000
vt 0.250000 0.500000
vt 0.218750 1.000000
vt 0.218750 0.500000
vt 0.187500 1.000000
vt 0.187500 0.500000
vt 0.156250 1.000000
vt 0.156250 0.500000
vt 0.125000 1.000000
vt 0.125000 0.500000
vt 0.093750 1.000000
vt 0.093750 0.500000
vt 0.062500 1.000000
vt 0.062500 0.500000
vt 0.031250 1.000000
vt 0.031250 0.500000
vt 0.000000 1.000000
vt 0.000000 0.500000
vn -0.0980 0.0000 0.9952
vn -0.2903 0.0000 0.9569
vn -0.4714 0.0000 0.8819
vn -0.6344 0.0000 0.7730
vn -0.7730 0.0000 0.6344
vn -0.8819 0.0000 0.4714
vn -0.9569 0.0000 0.2903
vn -0.9952 0.0000 0.0980
vn -0.9952 0.0000 -0.0980
vn -0.9569 0.0000 -0.2903
vn -0.8819 0.0000 -0.4714
vn -0.7730 0.0000 -0.6344
vn -0.6344 0.0000 -0.7730
vn -0.4714 0.0000 -0.8819
vn -0.2903 0.0000 -0.9569
vn -0.0980 0.0000 -0.9952
vn 0.0980 0.0000 -0.9952
vn 0.2903 0.0000 -0.9569
vn 0.4714 0.0000 -0.8819
vn 0.6344 0.0000 -0.7730
vn 0.7730 0.0000 -0.6344
vn 0.8819 0.0000 -0.4714
vn 0.9569 0.0000 -0.2903
vn 0.9952 0.0000 -0.0980
vn 0.9952 0.0000 0.0980
vn 0.9569 0.0000 0.2903
vn 0.8819 0.0000 0.4714
vn 0.7730 0.0000 0.6344
vn 0.6344 0.0000 0.7730
vn 0.4714 0.0000 0.8819
vn 0.2903 0.0000 0.9569
vn 0.0980 0.0000 0.9952
vn -0.0053 0.9986 0.0535
vn 0.0535 -0.9986 -0.0053
vn -0.0514 0.9986 -0.0156
vn -0.0053 -0.9986 0.0535
vn -0.0514 -0.9986 -0.0156
vn 0.0535 0.9986 0.0053
vn -0.0156 0.9986 0.0514
vn 0.0535 -0.9986 0.0053
vn 0.0053 0.9986 -0.0535
vn -0.0474 0.9986 -0.0253
vn -0.0156 -0.9986 0.0514
vn 0.0053 -0.9986 -0.0535
vn -0.0474 -0.9986 -0.0253
vn 0.0514 0.9986 0.0156
vn -0.0253 0.9986 0.0474
vn 0.0514 -0.9986 0.0156
vn -0.0415 0.9986 -0.0341
vn -0.0253 -0.9986 0.0474
vn 0.0156 0.9986 -0.0514
vn -0.0415 -0.9986 -0.0341
vn 0.0474 0.9986 0.0253
vn 0.0156 -0.9986 -0.0514
vn -0.0341 0.9986 0.0415
vn 0.0474 -0.9986 0.0253
vn -0.0341 0.9986 -0.0415
vn -0.0341 -0.9986 0.0415
vn 0.0253 0.9986 -0.0474
vn -0.0341 -0.9986 -0.0415
vn 0.0415 0.9986 0.0341
vn 0.0253 -0.9986 -0.0474
vn -0.0415 0.9986 0.0341
vn 0.0415 -0.9986 0.0341
vn -0.0253 0.9986 -0.0474
vn -0.0415 -0.9986 0.0341
vn 0.0341 0.9986 -0.0415
vn -0.0253 -0.9986 -0.0474
vn 0.0341 0.9986 0.0415
vn 0.0341 -0.9986 -0.0415
vn -0.0474 0.9986 0.0253
vn 0.0341 -0.9986 0.0415
vn -0.0156 0.9986 -0.0514
vn -0.0474 -0.9986 0.0253
vn 0.0415 0.9986 -0.0341
vn -0.0156 -0.9986 -0.0514
vn 0.0253 0.9986 0.0474
vn 0.0415 -0.9986 -0.0341
vn -0.0514 0.9986 0.0156
vn 0.0253 -0.9986 0.0474
vn -0.0053 0.9986 -0.0535
vn -0.0514 -0.9986 0.0156
vn 0.0474 0.9986 -0.0253
vn -0.0053 -0.9986 -0.0535
vn 0.0156 0.9986 0.0514
vn 0.0474 -0.9986 -0.0253
vn -0.0535 0.9986 0.0053
vn 0.0156 -0.9986 0.0514
vn -0.0535 -0.9986 0.0053
vn 0.0514 0.9986 -0.0156
vn 0.0053 0.9986 0.0535
vn 0.0514 -0.9986 -0.0156
vn -0.0535 0.9986 -0.0053
vn 0.0053 -0.9986 0.0535
vn -0.0535 -0.9986 -0.0053
vn 0.0535 0.9986 -0.0053
usemtl None
s off
f 1/1/1 3/2/1 4/3/1 2/4/1
f 3/2/2 5/5/2 6/6/2 4/3/2
f 5/5/3 7/7/3 8/8/3 6/6/3
f 7/7/4 9/9/4 10/10/4 8/8/4
f 9/9/5 11/11/5 12/12/5 10/10/5
f 11/11/6 13/13/6 14/14/6 12/12/6
f 13/13/7 15/15/7 16/16/7 14/14/7
f 15/15/8 17/17/8 18/18/8 16/16/8
f 17/17/9 19/19/9 20/20/9 18/18/9
f 19/19/10 21/21/10 22/22/10 20/20/10
f 21/21/11 23/23/11 24/24/11 22/22/11
f 23/23/12 25/25/12 26/26/12 24/24/12
f 25/25/13 27/27/13 28/28/13 26/26/13
f 27/27/14 29/29/14 30/30/14 28/28/14
f 29/29/15 31/31/15 32/32/15 30/30/15
f 31/31/16 33/33/16 34/34/16 32/32/16
f 33/33/17 35/35/17 36/36/17 34/34/17
f 35/35/18 37/37/18 38/38/18 36/36/18
f 37/37/19 39/39/19 40/40/19 38/38/19
f 39/39/20 41/41/20 42/42/20 40/40/20
f 41/41/21 43/43/21 44/44/21 42/42/21
f 43/43/22 45/45/22 46/46/22 44/44/22
f 45/45/23 47/47/23 48/48/23 46/46/23
f 47/47/24 49/49/24 50/50/24 48/48/24
f 49/49/25 51/51/25 52/52/25 50/50/25
f 51/51/26 53/53/26 54/54/26 52/52/26
f 53/53/27 55/55/27 56/56/27 54/54/27
f 55/55/28 57/57/28 58/58/28 56/56/28
f 57/57/29 59/59/29 60/60/29 58/58/29
f 59/59/30 61/61/30 62/62/30 60/60/30
f 61/61/31 63/63/31 64/64/31 62/62/31
f 63/63/32 1/65/32 2/66/32 64/64/32
f 65/67/17 68/68/17 67/69/17 66/70/17
f 66/70/18 67/69/18 70/71/18 69/72/18
f 69/72/19 70/71/19 72/73/19 71/74/19
f 71/74/20 72/73/20 74/75/20 73/76/20
f 73/76/21 74/75/21 76/77/21 75/78/21
f 75/78/22 76/77/22 78/79/22 77/80/22
f 77/80/23 78/79/23 80/81/23 79/82/23
f 79/82/24 80/81/24 82/83/24 81/84/24
f 81/84/25 82/83/25 84/85/25 83/86/25
f 83/86/26 84/85/26 86/87/26 85/88/26
f 85/88/27 86/87/27 88/89/27 87/90/27
f 87/90/28 88/89/28 90/91/28 89/92/28
f 89/92/29 90/91/29 92/93/29 91/94/29
f 91/94/30 92/93/30 94/95/30 93/96/30
f 93/96/31 94/95/31 96/97/31 95/98/31
f 95/98/32 96/97/32 98/99/32 97/100/32
f 97/100/1 98/99/1 100/101/1 99/102/1
f 99/102/2 100/101/2 102/103/2 101/104/2
f 101/104/3 102/103/3 104/105/3 103/106/3
f 103/106/4 104/105/4 106/107/4 105/108/4
f 105/108/5 106/107/5 108/109/5 107/110/5
f 107/110/6 108/109/6 110/111/6 109/112/6
f 109/112/7 110/111/7 112/113/7 111/114/7
f 111/114/8 112/113/8 114/115/8 113/116/8
f 113/116/9 114/115/9 116/117/9 115/118/9
f 115/118/10 116/117/10 118/119/10 117/120/10
f 117/120/11 118/119/11 120/121/11 119/122/11
f 119/122/12 120/121/12 122/123/12 121/124/12
f 121/124/13 122/123/13 124/125/13 123/126/13
f 123/126/14 124/125/14 126/127/14 125/128/14
f 125/128/15 126/127/15 128/129/15 127/130/15
f 127/130/16 128/129/16 68/131/16 65/132/16
f 35/35/33 33/33/33 97/100/33 99/102/33
f 16/16/34 18/18/34 82/83/34 80/81/34
f 53/53/35 51/51/35 115/118/35 117/120/35
f 34/34/36 36/36/36 100/101/36 98/99/36
f 52/52/37 54/54/37 118/119/37 116/117/37
f 19/19/38 17/17/38 81/84/38 83/86/38
f 37/37/39 35/35/39 99/102/39 101/104/39
f 18/18/40 20/20/40 84/85/40 82/83/40
f 3/2/41 1/1/41 65/67/41 66/70/41
f 55/55/42 53/53/42 117/120/42 119/122/42
f 36/36/43 38/38/43 102/103/43 100/101/43
f 2/4/44 4/3/44 67/69/44 68/68/44
f 54/54/45 56/56/45 120/121/45 118/119/45
f 21/21/46 19/19/46 83/86/46 85/88/46
f 39/39/47 37/37/47 101/104/47 103/106/47
f 20/20/48 22/22/48 86/87/48 84/85/48
f 57/57/49 55/55/49 119/122/49 121/124/49
f 38/38/50 40/40/50 104/105/50 102/103/50
f 5/5/51 3/2/51 66/70/51 69/72/51
f 56/56/52 58/58/52 122/123/52 120/121/52
f 23/23/53 21/21/53 85/88/53 87/90/53
f 4/3/54 6/6/54 70/71/54 67/69/54
f 41/41/55 39/39/55 103/106/55 105/108/55
f 22/22/56 24/24/56 88/89/56 86/87/56
f 59/59/57 57/57/57 121/124/57 123/126/57
f 40/40/58 42/42/58 106/107/58 104/105/58
f 7/7/59 5/5/59 69/72/59 71/74/59
f 58/58/60 60/60/60 124/125/60 122/123/60
f 25/25/61 23/23/61 87/90/61 89/92/61
f 6/6/62 8/8/62 72/73/62 70/71/62
f 43/43/63 41/41/63 105/108/63 107/110/63
f 24/24/64 26/26/64 90/91/64 88/89/64
f 61/61/65 59/59/65 123/126/65 125/128/65
f 42/42/66 44/44/66 108/109/66 106/107/66
f 9/9/67 7/7/67 71/74/67 73/76/67
f 60/60/68 62/62/68 126/127/68 124/125/68
f 27/27/69 25/25/69 89/92/69 91/94/69
f 8/8/70 10/10/70 74/75/70 72/73/70
f 45/45/71 43/43/71 107/110/71 109/112/71
f 26/26/72 28/28/72 92/93/72 90/91/72
f 63/63/73 61/61/73 125/128/73 127/130/73
f 44/44/74 46/46/74 110/111/74 108/109/74
f 11/11/75 9/9/75 73/76/75 75/78/75
f 62/62/76 64/64/76 128/129/76 126/127/76
f 29/29/77 27/27/77 91/94/77 93/96/77
f 10/10/78 12/12/78 76/77/78 74/75/78
f 47/47/79 45/45/79 109/112/79 111/114/79
f 28/28/80 30/30/80 94/95/80 92/93/80
f 1/65/81 63/63/81 127/130/81 65/132/81
f 46/46/82 48/48/82 112/113/82 110/111/82
f 13/13/83 11/11/83 75/78/83 77/80/83
f 64/64/84 2/66/84 68/131/84 128/129/84
f 31/31/85 29/29/85 93/96/85 95/98/85
f 12/12/86 14/14/86 78/79/86 76/77/86
f 49/49/87 47/47/87 111/114/87 113/116/87
f 30/30/88 32/32/88 96/97/88 94/95/88
f 48/48/89 50/50/89 114/115/89 112/113/89
f 15/15/90 13/13/90 77/80/90 79/82/90
f 33/33/91 31/31/91 95/98/91 97/100/91
f 14/14/92 16/16/92 80/81/92 78/79/92
f 51/51/93 49/49/93 113/116/93 115/118/93
f 32/32/94 34/34/94 98/99/94 96/97/94
f 50/50/95 52/52/95 116/117/95 114/115/95
f 17/17/96 15/15/96 79/82/96 81/84/96
